<svg width="20" height="22" viewBox="0 0 20 22" fill="none" xmlns="http://www.w3.org/2000/svg">
<path d="M18.233 9.74747C18.233 16.2021 11.622 20.1786 10.2481 20.936C10.172 20.978 10.0865 21 9.99961 21C9.91269 21 9.82719 20.978 9.75108 20.936C8.37618 20.1786 1.76721 16.2021 1.76721 9.74747C1.76721 4.6019 4.85455 1 10.0001 1C15.1457 1 18.233 4.6019 18.233 9.74747Z" stroke="white" stroke-width="2" stroke-linecap="round" stroke-linejoin="round"/>
<path d="M5.88367 9.23291C5.88367 10.3247 6.31736 11.3717 7.08935 12.1437C7.86133 12.9157 8.90837 13.3494 10.0001 13.3494C11.0919 13.3494 12.1389 12.9157 12.9109 12.1437C13.6829 11.3717 14.1166 10.3247 14.1166 9.23291C14.1166 8.14116 13.6829 7.09412 12.9109 6.32214C12.1389 5.55015 11.0919 5.11646 10.0001 5.11646C8.90837 5.11646 7.86133 5.55015 7.08935 6.32214C6.31736 7.09412 5.88367 8.14116 5.88367 9.23291V9.23291Z" stroke="white" stroke-width="2" stroke-linecap="round" stroke-linejoin="round"/>
</svg>
