<svg width="22" height="18" viewBox="0 0 22 18" fill="none" xmlns="http://www.w3.org/2000/svg">
<path d="M21 4.13953V14.1395C21 14.8026 20.7366 15.4385 20.2678 15.9073C19.7989 16.3761 19.163 16.6395 18.5 16.6395H3.5C2.83696 16.6395 2.20107 16.3761 1.73223 15.9073C1.26339 15.4385 1 14.8026 1 14.1395V4.13953" stroke="white" stroke-width="2" stroke-linecap="round" stroke-linejoin="round"/>
<path d="M21 4.13953C21 3.47649 20.7366 2.8406 20.2678 2.37176C19.7989 1.90292 19.163 1.63953 18.5 1.63953H3.5C2.83696 1.63953 2.20107 1.90292 1.73223 2.37176C1.26339 2.8406 1 3.47649 1 4.13953L9.675 9.55619C10.0723 9.80453 10.5314 9.9362 11 9.9362C11.4686 9.9362 11.9277 9.80453 12.325 9.55619L21 4.13953Z" stroke="white" stroke-width="2" stroke-linecap="round" stroke-linejoin="round"/>
</svg>
